<?xml version="1.0" encoding="UTF-8"?>
<svg fill="#8d40ee" id="a" xmlns="http://www.w3.org/2000/svg" viewBox="0 0 396.8503 74.68443">
    <path
            d="M5.53154,63.67609c-1.5335,0-2.84792.52942-3.94328,1.58826-1.05884,1.09534-1.58826,2.39154-1.58826,3.88852,0,1.53351.52942,2.84793,1.58826,3.94327,1.09535,1.05884,2.40978,1.58826,3.94328,1.58826h58.71103c1.49699,0,2.79317-.52942,3.8885-1.58826,1.05884-1.09534,1.58826-2.40979,1.58826-3.94327,0-1.49698-.52942-2.79315-1.58826-3.88852-1.09535-1.05884-2.39153-1.58826-3.8885-1.58826H5.53154ZM64.24257,11.04428c1.49699,0,2.79317-.52942,3.8885-1.58826,1.05884-1.05884,1.58826-2.35501,1.58826-3.8885s-.52942-2.82967-1.58826-3.8885c-1.09535-1.09535-2.39153-1.64304-3.8885-1.64304H5.53154C3.99804.03598,2.68362.58366,1.58826,1.67902c-1.05884,1.05884-1.58826,2.35501-1.58826,3.8885s.52942,2.82967,1.58826,3.8885c1.09535,1.05884,2.40978,1.58826,3.94328,1.58826h58.71103ZM5.53154,31.85603c-1.5335,0-2.84792.54768-3.94328,1.64304-1.05884,1.05884-1.58826,2.35501-1.58826,3.8885,0,1.49699.52942,2.79317,1.58826,3.8885,1.09535,1.05884,2.40978,1.58826,3.94328,1.58826h58.71103c1.49699,0,2.79317-.52942,3.8885-1.58826,1.05884-1.09535,1.58826-2.39153,1.58826-3.8885,0-1.53349-.52942-2.82967-1.58826-3.8885-1.09535-1.09535-2.39153-1.64304-3.8885-1.64304H5.53154Z"/>
    <path
            d="M130.24091,65.26438c-1.09534-1.05884-2.39148-1.58826-3.88849-1.58826h-36.86194V5.56754c0-1.53351-.52942-2.82971-1.58826-3.88855-1.09534-1.09534-2.39148-1.64301-3.88849-1.64301-1.53351,0-2.84796.54767-3.9433,1.64301-1.05884,1.05884-1.58826,2.35504-1.58826,3.88855v63.58533c0,1.53351.52942,2.84796,1.58826,3.9433,1.0954,1.05884,2.40979,1.58826,3.9433,1.58826h42.33868c1.49701,0,2.79315-.52942,3.88849-1.58826,1.05884-1.09534,1.58826-2.40979,1.58826-3.9433,0-1.49695-.52942-2.79315-1.58826-3.88849Z"/>
    <path
            d="M146.12355,63.67609c-1.53349,0-2.84792.52942-3.94328,1.58826-1.05884,1.09534-1.58826,2.39154-1.58826,3.88852,0,1.53351.52942,2.84793,1.58826,3.94327,1.09535,1.05884,2.40977,1.58826,3.94328,1.58826h58.71103c1.49698,0,2.79315-.52942,3.88852-1.58826,1.05884-1.09534,1.58826-2.40979,1.58826-3.94327,0-1.49698-.52942-2.79315-1.58826-3.88852-1.09534-1.05884-2.39154-1.58826-3.88852-1.58826h-58.71103ZM204.83458,11.04428c1.49698,0,2.79315-.52942,3.88852-1.58826,1.05884-1.05884,1.58826-2.35501,1.58826-3.8885s-.52942-2.82967-1.58826-3.8885c-1.09534-1.09535-2.39154-1.64304-3.88852-1.64304h-58.71103c-1.53349,0-2.84792.54768-3.94328,1.64304-1.05884,1.05884-1.58826,2.35501-1.58826,3.8885s.52942,2.82967,1.58826,3.8885c1.09535,1.05884,2.40977,1.58826,3.94328,1.58826h58.71103ZM146.12355,31.85603c-1.53349,0-2.84792.54768-3.94328,1.64304-1.05884,1.05884-1.58826,2.35501-1.58826,3.8885,0,1.49699.52942,2.79317,1.58826,3.8885,1.09535,1.05884,2.40977,1.58826,3.94328,1.58826h58.71103c1.49698,0,2.79315-.52942,3.88852-1.58826,1.05884-1.09535,1.58826-2.39153,1.58826-3.8885,0-1.53349-.52942-2.82967-1.58826-3.8885-1.09534-1.09535-2.39154-1.64304-3.88852-1.64304h-58.71103Z"/>
    <path
            d="M293.06541,74.68442c-1.49698,0-2.79315-.52942-3.88852-1.58826-1.05884-1.09534-1.58826-2.40979-1.58826-3.94327V18.16412l-25.02887,23.22153c-1.05884.98582-2.30026,1.47873-3.72421,1.47873-1.46048,0-2.70187-.4929-3.72421-1.47873l-25.02887-23.22153v50.98877c0,1.53351-.52942,2.84793-1.58826,3.94327-1.09534,1.05884-2.39154,1.58826-3.88852,1.58826-1.53351,0-2.84793-.52942-3.94327-1.58826-1.05884-1.09534-1.58826-2.40979-1.58826-3.94327V5.56754c0-2.40977,1.09534-4.08932,3.28607-5.03864,2.22723-.94931,4.21713-.6207,5.96967.98582l30.50565,28.36969,30.50565-28.36969c1.75256-1.60652,3.74246-1.93513,5.96967-.98582,2.1907.94931,3.28607,2.62885,3.28607,5.03864v63.58536c0,1.53351-.54767,2.84793-1.64304,3.94327-1.05884,1.05884-2.35501,1.58826-3.88852,1.58826h.00003Z"/>
    <path
            d="M312.89134,74.68442c-1.53351,0-2.84793-.52942-3.94327-1.58826-1.05884-1.09534-1.58826-2.40979-1.58826-3.94327V5.56754c0-1.53349.52942-2.82967,1.58826-3.8885,1.09534-1.09535,2.40979-1.64304,3.94327-1.64304,1.49698,0,2.79315.54768,3.88852,1.64304,1.05884,1.05884,1.58826,2.35501,1.58826,3.8885v63.58536c0,1.53351-.52942,2.84793-1.58826,3.94327-1.09534,1.05884-2.39154,1.58826-3.88852,1.58826Z"/>
    <path
            d="M396.8503,5.56752c0-1.53349-.52942-2.82967-1.58826-3.8885-1.09534-1.09535-2.39154-1.64304-3.88852-1.64304-1.53351,0-2.82968.54768-3.88852,1.64304-1.09534,1.05884-1.64304,2.35501-1.64304,3.8885v12.21321c0,3.90677-1.3692,7.22934-4.10757,9.96773-2.7384,2.73839-6.06097,4.10757-9.96774,4.10757h-19.55209c-3.87024,0-7.19284-1.36919-9.96774-4.10757-2.7384-2.73839-4.10757-6.06096-4.10757-9.96773V5.56752c0-1.53349-.52942-2.82967-1.58826-3.8885-1.09534-1.09535-2.39154-1.64304-3.88852-1.64304-1.53351,0-2.84793.54768-3.94327,1.64304-1.05884,1.05884-1.58826,2.35501-1.58826,3.8885v12.21321c0,8.03259,3.14001,14.56822,9.42004,19.60684-6.28003,5.03864-9.42004,11.55598-9.42004,19.55209v12.2132c0,1.53351.52942,2.84793,1.58826,3.94327,1.09534,1.05884,2.40979,1.58826,3.94327,1.58826,1.49698,0,2.79315-.52942,3.88852-1.58826,1.05884-1.09534,1.58826-2.40979,1.58826-3.94327v-12.21321c0-3.87025,1.3692-7.17458,4.10757-9.91296,2.7749-2.7749,6.09747-4.16235,9.96774-4.16235h19.55209c3.90677,0,7.22934,1.38745,9.96774,4.16235,2.7384,2.73839,4.10757,6.04271,4.10757,9.91296v12.21321c0,1.53351.54767,2.84793,1.64304,3.94327,1.05884,1.05884,2.35501,1.58826,3.88852,1.58826,1.49698,0,2.79315-.52942,3.88852-1.58826,1.05884-1.09534,1.58826-2.40979,1.58826-3.94327v-12.21321c0-7.99609-3.14001-14.51344-9.42004-19.55209,6.28003-5.03864,9.42004-11.57425,9.42004-19.60686V5.56752Z"/>
</svg>